<svg xmlns="http://www.w3.org/2000/svg" class="w-full max-w-57.5" height="34" viewBox="0 0 240 34" fill="none"><path d="M232.387 26.3299C227.827 26.3299 224.68 24.0005 224.68 19.6885C224.68 15.4012 228.149 12.9727 232.486 12.9727C237.021 12.9727 239.995 15.3765 239.995 19.7876V20.5063H229.066C229.388 22.2657 230.726 22.8853 232.511 22.8853C234.394 22.8853 235.361 22.3153 235.683 21.3984H239.92C239.623 24.1491 236.897 26.3299 232.387 26.3299ZM232.486 16.219C230.9 16.219 229.586 16.8138 229.14 18.3255H235.658C235.46 16.8634 234.221 16.219 232.486 16.219Z" fill="#F7F6F3"></path><path d="M213.975 26.3293C210.084 26.3293 207.234 24.0742 207.234 19.7622C207.234 15.475 209.787 12.972 214.049 12.972C216.676 12.972 218.262 13.9881 218.906 15.5245V8.73438H223.243V26.0815H218.956V23.529C218.411 24.8672 217.048 26.3293 213.975 26.3293ZM215.264 22.8351C217.469 22.8351 218.906 21.6703 218.906 19.9604V19.2665C218.906 17.6557 217.494 16.491 215.363 16.491C212.984 16.491 211.596 17.631 211.596 19.663C211.596 21.6703 212.934 22.8351 215.264 22.8351Z" fill="#F7F6F3"></path><path d="M200.696 26.0794H196.359V13.2178H200.647V16.3403C201.291 14.0604 202.877 13.0195 205.405 13.0195C205.925 13.0195 206.346 13.0443 206.842 13.1434V17.4306C206.123 17.3067 205.504 17.2324 204.934 17.2324C202.703 17.2324 200.696 18.075 200.696 20.5779V26.0794Z" fill="#F7F6F3"></path><path d="M186.873 26.3299C182.264 26.3299 178.844 24.05 178.844 19.6885C178.844 15.3517 182.437 12.9727 186.923 12.9727C191.482 12.9727 194.927 15.2526 194.927 19.5893C194.927 23.9261 191.309 26.3299 186.873 26.3299ZM186.873 22.8109C189.029 22.8109 190.565 21.6958 190.565 19.6389C190.565 17.5572 189.029 16.4916 186.898 16.4916C184.717 16.4916 183.205 17.5572 183.205 19.6389C183.205 21.7205 184.717 22.8109 186.873 22.8109Z" fill="#F7F6F3"></path><path d="M169.787 26.3299C165.178 26.3299 161.758 24.05 161.758 19.6885C161.758 15.3517 165.351 12.9727 169.837 12.9727C174.396 12.9727 177.841 15.2526 177.841 19.5893C177.841 23.9261 174.223 26.3299 169.787 26.3299ZM169.787 22.8109C171.943 22.8109 173.479 21.6958 173.479 19.6389C173.479 17.5572 171.943 16.4916 169.812 16.4916C167.631 16.4916 166.119 17.5572 166.119 19.6389C166.119 21.7205 167.631 22.8109 169.787 22.8109Z" fill="#F7F6F3"></path><path d="M156.94 26.0804H151.959L146.234 13.2188H150.819L154.511 21.9666L158.179 13.2188H162.64L156.94 26.0804Z" fill="#F7F6F3"></path><path d="M136.102 26.0821H131.766V13.2205H136.053V15.6986C136.772 14.187 138.283 12.9727 141.059 12.9727C144.107 12.9727 146.412 14.6578 146.412 18.3255V26.0821H142.075V19.168C142.075 17.4333 141.207 16.6155 139.497 16.6155C137.441 16.6155 136.102 17.7555 136.102 19.4654V26.0821Z" fill="#F7F6F3"></path><path d="M122.715 26.3299C118.155 26.3299 115.008 24.0005 115.008 19.6885C115.008 15.4012 118.477 12.9727 122.814 12.9727C127.349 12.9727 130.323 15.3765 130.323 19.7876V20.5063H119.394C119.716 22.2657 121.055 22.8853 122.839 22.8853C124.722 22.8853 125.689 22.3153 126.011 21.3984H130.248C129.951 24.1491 127.225 26.3299 122.715 26.3299ZM122.814 16.219C121.228 16.219 119.915 16.8138 119.468 18.3255H125.986C125.788 16.8634 124.549 16.219 122.814 16.219Z" fill="#F7F6F3"></path><path d="M110.182 26.0804H105.201L99.4766 13.2188H104.061L107.754 21.9666L111.421 13.2188H115.882L110.182 26.0804Z" fill="#F7F6F3"></path><path d="M86.8536 31.6562C85.4658 31.6562 84.5489 31.5323 83.7311 31.3093V27.6912C84.3259 27.8151 85.218 28.0629 86.6801 28.0629C87.9687 28.0629 88.5883 27.5673 89.0344 26.6504L89.3317 26.006L83.3594 13.2188H87.944L91.7108 21.7684L95.2297 13.2188H99.8887L93.6933 26.7247C92.2312 29.8967 90.6452 31.6562 86.8536 31.6562Z" fill="#F7F6F3"></path><path d="M73.5624 26.3282C70.5143 26.3282 68.2344 24.643 68.2344 20.9754V13.2188H72.5711V20.1328C72.5711 21.8923 73.4385 22.6853 75.1484 22.6853C77.0814 22.6853 78.3452 21.5701 78.3452 19.8354V13.2188H82.682V26.0804H78.3948V23.6766C77.7009 25.1387 76.1893 26.3282 73.5624 26.3282Z" fill="#F7F6F3"></path><path d="M56.6302 26.0815H48.1797V8.73438H56.7293C63.123 8.73438 66.9145 11.8321 66.9145 17.2592C66.9145 22.8103 63.0486 26.0815 56.6302 26.0815ZM52.6404 12.7738V22.0421H56.5063C60.4713 22.0421 62.3547 20.3569 62.3547 17.284C62.3547 14.4341 60.5209 12.7738 56.5806 12.7738H52.6404Z" fill="#F7F6F3"></path><path d="M32.7116 15.8813C32.7116 21.3864 29.717 26.2003 25.2773 28.7817V11.2152C27.2866 9.23696 29.8496 7.82236 32.7116 7.23744V15.8813ZM13.3822 30.1008V12.155C13.3822 7.22366 17.3843 3.21164 22.3034 3.21164V30.1008C20.8946 30.5459 19.3963 30.787 17.8427 30.787C16.2891 30.787 14.791 30.5459 13.3822 30.1008ZM2.97382 15.8813V7.23744C5.85361 7.82589 8.43103 9.25427 10.4458 11.2519C10.4235 11.5503 10.4083 11.8507 10.4083 12.155V28.7817C5.96857 26.2003 2.97382 21.3864 2.97382 15.8813ZM25.2773 7.32015V0.230469H22.3034C17.2247 0.230469 12.8919 3.42242 11.1859 7.91325C8.12546 5.44038 4.23654 3.95685 0 3.95685V15.8813C0 25.76 7.98858 33.7682 17.8427 33.7682C27.6969 33.7682 35.6854 25.76 35.6854 15.8813V3.95685C31.7997 3.95685 28.2073 5.20602 25.2773 7.32015Z" fill="#F7F6F3"></path></svg>