<svg xmlns="http://www.w3.org/2000/svg" viewBox="0 0 30 30" fill="none" class="fill-button-brand-primary group-hover/button:fill-button-contrast md:size-5 lg:size-6 size-5 || absolute inset-0 -rotate-360 scale-0 origin-center || group-hover/button:scale-100 group-hover/button:rotate-0 || transition-all duration-400 ease-in-out"><path d="M24.1666 14.8C24.1666 18.247 22.3205 21.2613 19.5834 22.8777V11.8782C20.8221 10.6395 22.4022 9.75374 24.1666 9.38749V14.8ZM12.2501 23.7036V12.4667C12.2501 9.37886 14.7174 6.86669 17.75 6.86669V23.7036C16.8815 23.9823 15.9578 24.1333 15 24.1333C14.0422 24.1333 13.1186 23.9823 12.2501 23.7036ZM5.83335 14.8V9.38749C7.60874 9.75595 9.19771 10.6504 10.4398 11.9012C10.4261 12.0881 10.4167 12.2761 10.4167 12.4667V22.8777C7.67961 21.2613 5.83335 18.247 5.83335 14.8ZM19.5834 9.43928V5H17.75C14.619 5 11.9478 6.99868 10.8961 9.81065C9.00933 8.26224 6.61182 7.33331 4 7.33331V14.8C4 20.9856 8.92495 26 15 26C21.0751 26 26 20.9856 26 14.8V7.33331C23.6045 7.33331 21.3897 8.11549 19.5834 9.43928Z"></path></svg>